<svg xmlns="http://www.w3.org/2000/svg" viewBox="0 0 1024 1024" role="img" aria-labelledby="t d"><title id="t">Nataiji</title><desc id="d">Official Nataiji education app logo</desc><defs><linearGradient id="b" x1="0" y1="0" x2="1" y2="1"><stop offset="0" stop-color="#0f63b8"/><stop offset="1" stop-color="#0b3f7d"/></linearGradient><linearGradient id="g" x1="0" y1="0" x2="1" y2="1"><stop offset="0" stop-color="#31c56b"/><stop offset="1" stop-color="#008d61"/></linearGradient><filter id="s" x="-20%" y="-20%" width="140%" height="140%"><feDropShadow dx="0" dy="16" stdDeviation="18" flood-opacity=".16"/></filter></defs><rect width="1024" height="1024" rx="220" fill="#f7fbff"/><path d="M112 246c149-136 333-196 539-169 94 12 181 42 261 88" fill="none" stroke="#1592e6" stroke-width="26" stroke-linecap="round"/><path d="M919 180c43 26 83 58 119 95" fill="none" stroke="#18b76d" stroke-width="26" stroke-linecap="round"/><g filter="url(#s)"><path d="M247 648l265 112 266-112-40-95-226 90-225-90z" fill="url(#b)"/><path d="M267 630l245 99 245-99-27-59-218 84-218-84z" fill="#fff"/><path d="M271 575l241 85 241-85-34-87-207 75-207-75z" fill="#178de0"/><path d="M218 294l235-170c27-19 64-19 91 0l236 170-236 91c-28 11-59 11-87 0z" fill="url(#b)"/><rect x="337" y="257" width="351" height="326" rx="42" fill="#fff" stroke="#2a83d2" stroke-width="18" transform="rotate(-4 512 420)"/><path d="M401 343h189M401 398h134M401 453h122M401 508h142" stroke="#cad7e6" stroke-width="20" stroke-linecap="round"/><path d="M653 352l24 24 43-54M653 410l24 24 43-54M653 468l24 24 43-54" fill="none" stroke="#0aa66e" stroke-width="18" stroke-linecap="round" stroke-linejoin="round"/><path d="M318 539c59-31 114-39 165-23 50 16 96 57 137 122 22 34 41 61 56 79-79 17-147 2-204-44-65-53-116-98-154-134z" fill="url(#g)"/><path d="M485 623c58 11 106 39 145 84 37-57 82-101 135-132 23-13 43-22 59-27-26 86-68 151-125 195-38 30-80 50-126 60-32-50-61-89-88-118-26-28-49-48-68-62 20-4 43-4 68 0z" fill="url(#g)"/></g><text x="512" y="866" text-anchor="middle" font-family="Arial, Tahoma, sans-serif" font-size="96" font-weight="800" fill="#0b427f">نتائجي</text><text x="512" y="936" text-anchor="middle" font-family="Arial, sans-serif" font-size="52" font-weight="700" letter-spacing="10" fill="#0b9b6a">NATAIJI</text></svg>